<svg width="116" height="23" viewBox="0 0 116 23" fill="none" xmlns="http://www.w3.org/2000/svg">
<path fill-rule="evenodd" clip-rule="evenodd" d="M0 11.5C0 17.8513 5.12938 23 11.4568 23C17.781 22.9922 22.9058 17.848 22.9136 11.5C22.9136 5.14873 17.7842 0 11.4568 0C5.12938 0 0 5.14873 0 11.5ZM5.28775 11.5C5.28775 8.08008 8.04972 5.30769 11.4568 5.30769C13.0929 5.30769 14.662 5.96009 15.819 7.12138C16.9759 8.28266 17.6258 9.8577 17.6258 11.5C17.6258 14.9199 14.8639 17.6923 11.4568 17.6923C8.04972 17.6923 5.28775 14.9199 5.28775 11.5Z" fill="#092F45"/>
<path fill-rule="evenodd" clip-rule="evenodd" d="M70.3774 11.5C70.3774 17.8513 75.5068 23 81.8342 23C88.1584 22.9922 93.2833 17.848 93.291 11.5C93.291 5.14873 88.1616 0 81.8342 0C75.5068 0 70.3774 5.14873 70.3774 11.5ZM75.6652 11.5C75.6652 8.08008 78.4272 5.30769 81.8342 5.30769C83.4704 5.30769 85.0395 5.96009 86.1964 7.12138C87.3533 8.28266 88.0033 9.8577 88.0033 11.5C88.0033 14.9199 85.2413 17.6923 81.8342 17.6923C78.4272 17.6923 75.6652 14.9199 75.6652 11.5Z" fill="#092F45"/>
<path d="M36.2157 17.6939C32.2698 17.6939 29.206 13.7197 30.5566 9.43773C31.1278 7.64573 32.4866 6.24009 34.2188 5.64921C38.358 4.25195 42.1997 7.42143 42.1997 11.5036C42.1997 13.5853 41.4337 15.43 39.9172 16.5531C39.9027 16.5644 39.8966 16.5838 39.902 16.6017C39.9074 16.6196 39.9231 16.632 39.9412 16.6327H46.2175C46.2696 16.6335 46.3175 16.6032 46.3406 16.5549C47.0604 15.0285 47.3288 13.3147 47.3288 11.5036C47.3235 7.97387 45.7545 4.64144 43.0714 2.46108C40.3882 0.28071 36.887 -0.506978 33.5708 0.3237C29.5196 1.30407 26.3564 4.57643 25.4087 8.7674C24.6058 12.1979 25.3672 15.82 27.4748 18.5957C29.5825 21.3714 32.8038 22.9946 36.2157 23H50.0797C50.1157 23.0003 50.1496 22.9825 50.1707 22.9523C50.1917 22.922 50.1973 22.8831 50.1857 22.8479L48.5649 17.8142C48.5416 17.7428 48.4771 17.6945 48.4042 17.6939H36.2157Z" fill="#092F45"/>
<path d="M68.1952 0.178295C68.1952 0.0798252 68.1169 0 68.0202 0H49.8211C49.7245 0 49.6461 0.0798252 49.6461 0.178295V5.88372C49.6461 5.98219 49.7245 6.06202 49.8211 6.06202H55.7708C55.8675 6.06202 55.9458 6.14184 55.9458 6.24031V22.8217C55.9458 22.9202 56.0242 23 56.1208 23H61.7205C61.8172 23 61.8955 22.9202 61.8955 22.8217V6.24031C61.8955 6.14184 61.9739 6.06202 62.0705 6.06202H68.0202C68.1169 6.06202 68.1952 5.98219 68.1952 5.88372V0.178295Z" fill="#092F45"/>
<path d="M115.314 23H115.487C115.582 23 115.659 22.9202 115.659 22.8217V0.178295C115.659 0.0798252 115.582 2.0815e-09 115.487 2.0815e-09H110.318C110.223 2.0815e-09 110.146 0.0798252 110.146 0.178295V11.4109C110.147 11.4453 110.128 11.4769 110.097 11.4915C110.067 11.5062 110.032 11.5011 110.006 11.4786L96.6786 0.119457C96.5866 0.0421657 96.4716 -1.08184e-05 96.353 2.0815e-09H96.1911C96.0959 2.0815e-09 96.0188 0.0798252 96.0188 0.178295V22.8217C96.0188 22.9202 96.0959 23 96.1911 23H101.36C101.455 23 101.532 22.9202 101.532 22.8217V11.9457C101.531 11.9113 101.55 11.8797 101.58 11.8644C101.61 11.8492 101.645 11.8531 101.671 11.8744L115.001 22.8805C115.09 22.9545 115.2 22.9964 115.314 23Z" fill="#092F45"/>
</svg>
