<svg width="200" height="200" viewBox="0 0 200 200" fill="none" xmlns="http://www.w3.org/2000/svg">
<g clip-path="url(#clip0_7_144)">
<path d="M35.4167 1.61203e-05H164.583C169.236 -0.00448106 173.843 0.932018 178.142 2.75592C182.441 4.57981 186.347 7.25531 189.636 10.6293C192.926 14.0032 195.535 18.0094 197.313 22.4186C199.091 26.8277 200.004 31.5533 200 36.3248V163.675C200.004 168.447 199.091 173.172 197.313 177.581C195.535 181.991 192.926 185.997 189.636 189.371C186.347 192.745 182.441 195.42 178.142 197.244C173.843 199.068 169.236 200.004 164.583 200H35.4167C30.7645 200.004 26.1571 199.068 21.8581 197.244C17.5592 195.42 13.6532 192.745 10.3635 189.371C7.07392 185.997 4.46532 181.991 2.68702 177.581C0.908718 173.172 -0.00436903 168.447 1.57173e-05 163.675V36.3248C-0.00436903 31.5533 0.908718 26.8277 2.68702 22.4186C4.46532 18.0094 7.07392 14.0032 10.3635 10.6293C13.6532 7.25531 17.5592 4.57981 21.8581 2.75592C26.1571 0.932018 30.7645 -0.00448106 35.4167 1.61203e-05Z" fill="#A179DC"/>
<path d="M148.335 82.5237V91.1899H157.001V82.5237H161.334V91.1899H170V95.523H161.334V104.189H170V108.522H161.334V117.188H157.001V108.522H148.335V117.188H144.002V108.522H135.336V104.189H144.002V95.523H135.336V91.1899H144.002V82.5237H148.335ZM157.001 95.5223H148.335V104.189H157.001V95.5223Z" fill="white"/>
<path d="M101.103 39.0006C123.707 39.0006 143.441 51.2764 154.012 69.5234L153.909 69.3478L127.313 84.6606C122.074 75.7892 112.469 69.8018 101.449 69.6784L101.102 69.6764C84.299 69.6764 70.6764 83.299 70.6764 100.102C70.6709 105.398 72.0545 110.603 74.6892 115.197C79.9337 124.353 89.793 130.528 101.103 130.528C112.482 130.528 122.398 124.275 127.615 115.021L127.488 115.243L154.043 130.627C143.589 148.719 124.124 160.957 101.783 161.201L101.103 161.205C78.4274 161.205 58.6368 148.853 48.0925 130.51C42.9451 121.555 40 111.173 40 100.102C40 66.357 67.3557 39 101.102 39L101.103 39.0006Z" fill="white"/>
</g>
<defs>
<clipPath id="clip0_7_144">
<rect width="200" height="200" fill="white"/>
</clipPath>
</defs>
</svg>
