<svg width="200" height="200" viewBox="0 0 200 200" fill="none" xmlns="http://www.w3.org/2000/svg">
<path d="M87.069 162.138C52.844 162.138 25 134.294 25 100.069C25 65.844 52.844 38 87.069 38C109.153 38 129.75 49.8844 140.82 69.015L113.958 84.559C108.418 74.9834 98.1136 69.0345 87.069 69.0345C69.9562 69.0345 56.0345 82.9562 56.0345 100.069C56.0345 117.181 69.9562 131.103 87.069 131.103C98.1148 131.103 108.419 125.155 113.96 115.577L140.822 131.12C129.752 150.253 109.155 162.138 87.069 162.138Z" fill="white"/>
<path d="M149.138 96.6205H142.241V89.7241H135.345V96.6205H128.448V103.517H135.345V110.414H142.241V103.517H149.138V96.6205Z" fill="white"/>
<path d="M175 96.6205H168.103V89.7241H161.207V96.6205H154.31V103.517H161.207V110.414H168.103V103.517H175V96.6205Z" fill="white"/>
</svg>
