<svg width="208" height="208" viewBox="0 0 208 208" fill="none" xmlns="http://www.w3.org/2000/svg">
<g clip-path="url(#clip0_1_683)" filter="url(#filter0_d_1_683)">
<path d="M39.4167 1.61203e-05H168.583C173.236 -0.00448106 177.843 0.932018 182.142 2.75592C186.441 4.57981 190.347 7.25531 193.636 10.6293C196.926 14.0032 199.535 18.0094 201.313 22.4186C203.091 26.8277 204.004 31.5533 204 36.3248V163.675C204.004 168.447 203.091 173.172 201.313 177.581C199.535 181.991 196.926 185.997 193.636 189.371C190.347 192.745 186.441 195.42 182.142 197.244C177.843 199.068 173.236 200.004 168.583 200H39.4167C34.7645 200.004 30.1571 199.068 25.8581 197.244C21.5592 195.42 17.6532 192.745 14.3635 189.371C11.0739 185.997 8.46532 181.991 6.68702 177.581C4.90872 173.172 3.99563 168.447 4.00002 163.675V36.3248C3.99563 31.5533 4.90872 26.8277 6.68702 22.4186C8.46532 18.0094 11.0739 14.0032 14.3635 10.6293C17.6532 7.25531 21.5592 4.57981 25.8581 2.75592C30.1571 0.932018 34.7645 -0.00448106 39.4167 1.61203e-05V1.61203e-05Z" fill="#000B1D"/>
<path d="M34.0172 87.5433C33.6979 87.5433 33.6181 87.3837 33.7778 87.1442L35.4538 84.9894C35.6134 84.75 36.0124 84.5903 36.3317 84.5903H64.8236C65.1429 84.5903 65.2227 84.8298 65.063 85.0692L63.7063 87.1442C63.5467 87.3837 63.1476 87.6231 62.9082 87.6231L34.0172 87.5433Z" fill="#2DBCAF"/>
<path d="M21.966 94.8856C21.6468 94.8856 21.567 94.726 21.7266 94.4865L23.4026 92.3317C23.5622 92.0922 23.9613 91.9326 24.2805 91.9326H60.6736C60.9928 91.9326 61.1524 92.172 61.0726 92.4115L60.4342 94.3269C60.3544 94.6461 60.0351 94.8058 59.7159 94.8058L21.966 94.8856Z" fill="#2DBCAF"/>
<path d="M41.2799 102.228C40.9606 102.228 40.8808 101.989 41.0405 101.749L42.1578 99.7542C42.3174 99.5148 42.6366 99.2754 42.9559 99.2754H58.9178C59.237 99.2754 59.3966 99.5148 59.3966 99.8341L59.237 101.749C59.237 102.069 58.9178 102.308 58.6783 102.308L41.2799 102.228Z" fill="#2DBCAF"/>
<path d="M124.122 86.1066C119.094 87.3836 115.662 88.3413 110.714 89.6182C109.517 89.9375 109.437 90.0173 108.4 88.8201C107.202 87.4634 106.325 86.5855 104.649 85.7874C99.6205 83.3133 94.7522 84.0316 90.203 86.9845C84.776 90.4961 81.9827 95.6837 82.0625 102.148C82.1423 108.533 86.5318 113.8 92.8367 114.678C98.2638 115.397 102.813 113.481 106.404 109.411C107.123 108.533 107.761 107.575 108.559 106.458C105.686 106.458 102.095 106.458 93.156 106.458C91.48 106.458 91.0809 105.42 91.6396 104.064C92.6771 101.59 94.5925 97.4396 95.7099 95.3645C95.9493 94.8857 96.508 94.0876 97.7051 94.0876C101.775 94.0876 116.78 94.0876 126.756 94.0876C126.596 96.2424 126.596 98.3973 126.277 100.552C125.399 106.298 123.244 111.566 119.733 116.195C113.986 123.777 106.484 128.485 96.9868 129.762C89.1655 130.8 81.9028 129.284 75.5181 124.495C69.6122 120.026 66.2602 114.12 65.3823 106.777C64.3448 98.078 66.8987 90.2567 72.1661 83.3931C77.8326 75.9708 85.3347 71.2621 94.5127 69.5861C102.015 68.2293 109.198 69.1072 115.662 73.4967C119.892 76.2901 122.925 80.1209 124.92 84.7499C125.399 85.4681 125.08 85.8672 124.122 86.1066Z" fill="#2DBCAF"/>
<path d="M150.539 130.241C143.276 130.082 136.652 128.007 131.065 123.218C126.357 119.148 123.404 113.96 122.446 107.815C121.009 98.7963 123.484 90.8154 128.911 83.7123C134.737 76.0506 141.76 72.0601 151.257 70.3841C159.398 68.9476 167.06 69.7457 174.003 74.4544C180.308 78.7641 184.219 84.5902 185.256 92.2519C186.613 103.026 183.5 111.805 176.078 119.307C170.811 124.655 164.346 128.007 156.924 129.523C154.769 129.922 152.614 130.002 150.539 130.241ZM169.534 97.9982C169.454 96.9607 169.454 96.1626 169.294 95.3645C167.858 87.4634 160.595 82.994 153.013 84.7498C145.591 86.4258 140.802 91.1346 139.046 98.6367C137.61 104.862 140.643 111.167 146.389 113.721C150.778 115.636 155.168 115.397 159.398 113.242C165.703 109.97 169.135 104.862 169.534 97.9982Z" fill="#2DBCAF"/>
</g>
<defs>
<filter id="filter0_d_1_683" x="0" y="0" width="208" height="208" filterUnits="userSpaceOnUse" color-interpolation-filters="sRGB">
<feFlood flood-opacity="0" result="BackgroundImageFix"/>
<feColorMatrix in="SourceAlpha" type="matrix" values="0 0 0 0 0 0 0 0 0 0 0 0 0 0 0 0 0 0 127 0" result="hardAlpha"/>
<feOffset dy="4"/>
<feGaussianBlur stdDeviation="2"/>
<feComposite in2="hardAlpha" operator="out"/>
<feColorMatrix type="matrix" values="0 0 0 0 0 0 0 0 0 0 0 0 0 0 0 0 0 0 0.25 0"/>
<feBlend mode="normal" in2="BackgroundImageFix" result="effect1_dropShadow_1_683"/>
<feBlend mode="normal" in="SourceGraphic" in2="effect1_dropShadow_1_683" result="shape"/>
</filter>
<clipPath id="clip0_1_683">
<rect width="200" height="200" fill="white" transform="translate(4)"/>
</clipPath>
</defs>
</svg>
