<svg width="200" height="200" viewBox="0 0 200 200" fill="none" xmlns="http://www.w3.org/2000/svg">
<path d="M155.081 38L145.045 150.43L99.9326 162.936L54.9443 150.447L44.9186 38H155.081Z" fill="#E44D26"/>
<path d="M100 153.376L136.453 143.27L145.029 47.1938H100V153.376Z" fill="#F16529"/>
<path d="M80.4902 74.7768H100V60.9856H65.4182L65.7481 64.6855L69.1379 102.69H100V88.8991H81.7507L80.4902 74.7768ZM83.5984 109.586H69.7542L71.6861 131.24L99.9365 139.082L100 139.065V124.716L99.9395 124.732L84.5804 120.585L83.5984 109.586Z" fill="#EBEBEB"/>
<path d="M99.9525 102.69H116.935L115.334 120.576L99.952 124.728V139.076L128.225 131.24L128.432 128.91L131.673 92.6025L132.01 88.8991H99.9525V102.69ZM99.9525 74.7431V74.7768H133.265L133.541 71.6771L134.17 64.6855L134.499 60.9856H99.9525V74.7435V74.7431Z" fill="white"/>
</svg>
