<svg width="200" height="200" viewBox="0 0 200 200" fill="none" xmlns="http://www.w3.org/2000/svg">
<path d="M35.4167 1.61203e-05H164.583C169.236 -0.00448106 173.843 0.932018 178.142 2.75592C182.441 4.57981 186.347 7.25531 189.636 10.6293C192.926 14.0032 195.535 18.0094 197.313 22.4186C199.091 26.8277 200.004 31.5533 200 36.3248V163.675C200.004 168.447 199.091 173.172 197.313 177.581C195.535 181.991 192.926 185.997 189.636 189.371C186.347 192.745 182.441 195.42 178.142 197.244C173.843 199.068 169.236 200.004 164.583 200H35.4167C30.7645 200.004 26.157 199.068 21.8581 197.244C17.5592 195.42 13.6532 192.745 10.3635 189.371C7.07392 185.997 4.46532 181.991 2.68702 177.581C0.908717 173.172 -0.00436903 168.447 1.57173e-05 163.675V36.3248C-0.00436903 31.5533 0.908717 26.8277 2.68702 22.4186C4.46532 18.0094 7.07392 14.0032 10.3635 10.6293C13.6532 7.25531 17.5592 4.57981 21.8581 2.75592C26.157 0.932018 30.7645 -0.00448106 35.4167 1.61203e-05V1.61203e-05Z" fill="#F0F0F0"/>
<path d="M99.5554 175C97.5467 175 95.5517 174.473 93.7906 173.459L75.4409 162.595C72.7002 161.063 74.0375 160.521 74.9414 160.208C78.5957 158.929 79.3373 158.64 83.2378 156.425C83.6478 156.191 84.1844 156.273 84.604 156.521L98.701 164.886C99.2101 165.161 99.9324 165.161 100.404 164.886L155.37 133.159C155.879 132.87 156.209 132.278 156.209 131.673V68.2464C156.209 67.6135 155.879 67.0494 155.359 66.733L100.415 35.0334C99.9062 34.7307 99.2321 34.7307 98.723 35.0334L43.7908 66.733C43.2583 67.0357 42.9199 67.6273 42.9199 68.2326V131.659C42.9199 132.265 43.2501 132.843 43.7729 133.132L58.8247 141.827C66.9973 145.913 71.9916 141.098 71.9916 136.255V73.6535C71.9916 72.7592 72.6933 72.0713 73.5876 72.0713H80.5494C81.4162 72.0713 82.1316 72.7592 82.1316 73.6535V136.282C82.1316 147.179 76.188 153.439 65.8553 153.439C62.6771 153.439 60.173 153.439 53.1837 149.999L38.7648 141.689C35.2014 139.626 33 135.773 33 131.659V68.2326C33 64.1051 35.2014 60.2527 38.7648 58.2165L93.7851 26.4756C97.266 24.5081 101.889 24.5081 105.342 26.4756L160.294 58.2302C163.843 60.2802 166.059 64.1189 166.059 68.2464V131.673C166.059 135.787 163.843 139.626 160.294 141.689L105.342 173.43C103.581 174.448 101.586 174.971 99.5499 174.971" fill="#689F63"/>
<path d="M116.533 131.295C92.4835 131.295 87.441 120.255 87.441 110.995C87.441 110.115 88.151 109.413 89.0329 109.413H96.1323C96.9165 109.413 97.5769 109.984 97.7008 110.759C98.7739 117.993 101.966 121.642 116.509 121.642C128.093 121.642 133.019 119.025 133.019 112.882C133.019 109.346 131.615 106.718 113.619 104.957C98.5676 103.471 89.2668 100.155 89.2668 88.1163C89.2668 77.0269 98.6226 70.4229 114.294 70.4229C131.891 70.4229 140.614 76.5316 141.714 89.6572C141.755 90.1113 141.59 90.5515 141.288 90.8817C140.985 91.1982 140.558 91.3908 140.118 91.3908H132.978C132.235 91.3908 131.588 90.868 131.437 90.1525C129.717 82.5441 125.562 80.1088 114.266 80.1088C101.622 80.1088 100.15 84.5116 100.15 87.8136C100.15 91.8173 101.883 92.9868 118.944 95.2432C135.839 97.4858 143.861 100.65 143.861 112.524C143.861 124.494 133.872 131.359 116.454 131.359L116.533 131.295Z" fill="#689F63"/>
</svg>
