<svg width="200" height="200" viewBox="0 0 200 200" fill="none" xmlns="http://www.w3.org/2000/svg">
<path d="M99.7183 33C65.0516 33 67.2165 48.0336 67.2165 48.0336L67.2551 63.6082H100.337V68.2845H54.1152C54.1152 68.2845 31.932 65.7687 31.932 100.748C31.932 135.727 51.294 134.486 51.294 134.486H62.8494V118.255C62.8494 118.255 62.2265 98.8926 81.9022 98.8926C101.578 98.8926 114.713 98.8926 114.713 98.8926C114.713 98.8926 133.148 99.1906 133.148 81.0765C133.148 62.9624 133.148 51.1253 133.148 51.1253C133.148 51.1253 135.947 33 99.7183 33ZM81.4771 43.4733C84.7685 43.4733 87.4287 46.1335 87.4287 49.4249C87.4287 52.7162 84.7685 55.3764 81.4771 55.3764C78.1857 55.3764 75.5255 52.7162 75.5255 49.4249C75.5255 46.1335 78.1857 43.4733 81.4771 43.4733Z" fill="url(#paint0_linear_1_907)"/>
<path d="M100.703 168.846C135.37 168.846 133.205 153.813 133.205 153.813L133.166 138.238H100.084V133.562H146.306C146.306 133.562 168.489 136.078 168.489 101.099C168.489 66.1195 149.127 67.3599 149.127 67.3599H137.572V83.5916C137.572 83.5916 138.195 102.954 118.519 102.954C98.8432 102.954 85.7079 102.954 85.7079 102.954C85.7079 102.954 67.2734 102.656 67.2734 120.77C67.2734 138.884 67.2734 150.721 67.2734 150.721C67.2734 150.721 64.4745 168.846 100.703 168.846ZM118.944 158.373C115.653 158.373 112.992 155.713 112.992 152.421C112.992 149.13 115.653 146.47 118.944 146.47C122.235 146.47 124.896 149.13 124.896 152.421C124.896 155.713 122.235 158.373 118.944 158.373Z" fill="url(#paint1_linear_1_907)"/>
<defs>
<linearGradient id="paint0_linear_1_907" x1="45.0554" y1="44.8742" x2="112.579" y2="112.624" gradientUnits="userSpaceOnUse">
<stop stop-color="#387EB8"/>
<stop offset="1" stop-color="#366994"/>
</linearGradient>
<linearGradient id="paint1_linear_1_907" x1="86.5929" y1="87.9734" x2="159.113" y2="157.452" gradientUnits="userSpaceOnUse">
<stop stop-color="#FFE052"/>
<stop offset="1" stop-color="#FFC331"/>
</linearGradient>
</defs>
</svg>
