<svg width="200" height="200" viewBox="0 0 200 200" fill="none" xmlns="http://www.w3.org/2000/svg">
<g clip-path="url(#clip0_1_451)">
<path d="M154.801 109.098C149.501 109.126 144.895 110.415 141.038 112.319C139.623 109.49 138.208 106.97 137.958 105.121C137.681 102.965 137.348 101.648 137.681 99.0714C138.014 96.4947 139.512 92.8257 139.484 92.5456C139.457 92.2655 139.151 90.9492 136.099 90.9212C133.047 90.8932 130.411 91.5093 130.106 92.3215C129.801 93.1338 129.218 94.9823 128.829 96.8868C128.302 99.6876 122.725 109.686 119.534 114.924C118.507 112.879 117.62 111.087 117.425 109.658C117.148 107.502 116.815 106.185 117.148 103.609C117.481 101.032 118.979 97.3629 118.951 97.0829C118.924 96.8028 118.618 95.4864 115.566 95.4584C112.514 95.4304 109.878 96.0466 109.573 96.8588C109.268 97.671 108.935 99.5756 108.296 101.424C107.658 103.273 100.25 119.965 98.3074 124.278C97.3085 126.491 96.4483 128.256 95.8378 129.46C95.8378 129.46 95.8101 129.544 95.7269 129.684C95.1997 130.72 94.8944 131.28 94.8944 131.28C94.8944 131.28 94.8944 131.28 94.8944 131.308C94.4782 132.065 94.0343 132.765 93.8123 132.765C93.6458 132.765 93.3406 130.748 93.8678 128.003C94.9777 122.206 97.6137 113.187 97.5859 112.879C97.5859 112.711 98.0854 111.143 95.8656 110.331C93.7013 109.518 92.9244 110.863 92.7301 110.863C92.5359 110.863 92.3972 111.339 92.3972 111.339C92.3972 111.339 94.8112 101.2 87.7911 101.2C83.407 101.2 77.3581 106.045 74.3614 110.415C72.4746 111.451 68.4512 113.663 64.1504 116.044C62.5133 116.968 60.8207 117.893 59.2391 118.761C59.1281 118.649 59.0171 118.509 58.9061 118.397C50.4154 109.238 34.7104 102.768 35.3764 90.473C35.6261 85.9918 37.1522 74.2285 65.5377 59.9445C88.901 48.3213 107.492 51.5422 110.71 58.6842C115.316 68.879 100.749 87.8123 76.6089 90.5571C67.3968 91.5933 62.5688 88.0083 61.3479 86.664C60.0715 85.2636 59.8773 85.1796 59.4056 85.4596C58.6287 85.8798 59.1281 87.1401 59.4056 87.8683C60.127 89.7728 63.096 93.1338 68.1182 94.7862C72.5578 96.2426 83.3515 97.0549 96.4205 91.9574C111.043 86.2439 122.475 70.3634 119.118 57.0597C115.76 43.56 93.5626 39.1067 72.5578 46.6408C60.0715 51.1221 46.5308 58.18 36.7915 67.3666C25.2208 78.2896 23.3895 87.7843 24.1387 91.7614C26.8302 105.877 46.1146 115.064 53.8284 121.87C53.4399 122.094 53.0792 122.29 52.774 122.458C48.9171 124.39 34.211 132.149 30.5483 140.355C26.3862 149.653 31.2143 156.319 34.4052 157.216C44.311 159.988 54.4943 155.003 59.9605 146.769C65.4268 138.534 64.7608 127.835 62.2358 122.934C62.2081 122.878 62.1803 122.822 62.1248 122.766C63.1237 122.178 64.1504 121.562 65.1493 120.974C67.1193 119.797 69.0616 118.705 70.7265 117.809C69.7831 120.413 69.0894 123.522 68.7564 128.003C68.3402 133.269 70.4768 140.103 73.2793 142.792C74.5279 143.968 75.9985 143.996 76.9419 143.996C80.2161 143.996 81.6867 141.251 83.3238 138.002C85.3216 134.025 87.1252 129.404 87.1252 129.404C87.1252 129.404 84.8776 141.895 90.9821 141.895C93.2019 141.895 95.4494 138.983 96.4483 137.498C96.4483 137.526 96.4483 137.526 96.4483 137.526C96.4483 137.526 96.5038 137.442 96.6148 137.246C96.8368 136.882 96.9755 136.658 96.9755 136.658C96.9755 136.658 96.9755 136.63 96.9755 136.602C97.8634 135.033 99.8612 131.476 102.83 125.567C106.659 117.949 110.35 108.426 110.35 108.426C110.35 108.426 110.683 110.751 111.82 114.616C112.486 116.884 113.874 119.377 114.984 121.786C114.096 123.046 113.541 123.746 113.541 123.746C113.541 123.746 113.541 123.746 113.568 123.774C112.847 124.727 112.07 125.763 111.21 126.771C108.185 130.412 104.578 134.585 104.079 135.79C103.496 137.218 103.635 138.254 104.745 139.095C105.549 139.711 106.992 139.795 108.463 139.711C111.182 139.515 113.097 138.842 114.04 138.422C115.511 137.89 117.231 137.078 118.84 135.874C121.809 133.661 123.613 130.496 123.446 126.323C123.363 124.026 122.614 121.73 121.698 119.573C121.976 119.181 122.226 118.789 122.503 118.397C127.192 111.479 130.827 103.889 130.827 103.889C130.827 103.889 131.16 106.213 132.298 110.078C132.853 112.039 133.99 114.168 134.989 116.24C130.578 119.853 127.858 124.054 126.887 126.799C125.139 131.897 126.499 134.193 129.079 134.725C130.245 134.977 131.909 134.417 133.13 133.885C134.684 133.381 136.515 132.513 138.264 131.224C141.233 129.012 144.09 125.931 143.924 121.758C143.841 119.853 143.341 117.977 142.648 116.156C146.394 114.588 151.222 113.719 157.381 114.448C170.589 116.016 173.197 124.334 172.698 127.835C172.199 131.336 169.424 133.241 168.508 133.829C167.593 134.417 167.287 134.613 167.371 135.033C167.482 135.65 167.925 135.622 168.702 135.51C169.785 135.313 175.639 132.681 175.889 126.239C176.305 118.005 168.536 109.014 154.801 109.098ZM52.9127 143.772C48.5286 148.589 42.4242 150.41 39.7882 148.869C36.958 147.217 38.0679 140.103 43.4508 135.005C46.725 131.897 50.9426 129.012 53.7451 127.247C54.3833 126.855 55.3267 126.295 56.4644 125.595C56.6586 125.483 56.7696 125.427 56.7696 125.427C56.9916 125.287 57.2135 125.147 57.4355 125.007C59.4056 132.289 57.5188 138.702 52.9127 143.772ZM84.8221 121.87C83.296 125.623 80.1051 135.229 78.1628 134.697C76.4979 134.249 75.4713 126.967 77.8298 119.769C79.023 116.156 81.548 111.843 83.0186 110.163C85.4048 107.474 88.0408 106.578 88.679 107.67C89.4837 109.098 85.7656 119.517 84.8221 121.87ZM111.154 134.585C110.516 134.921 109.906 135.145 109.628 134.977C109.434 134.865 109.906 134.417 109.906 134.417C109.906 134.417 113.208 130.832 114.512 129.208C115.261 128.256 116.149 127.135 117.092 125.875C117.092 125.987 117.092 126.127 117.092 126.239C117.092 130.524 112.986 133.409 111.154 134.585ZM131.465 129.908C130.994 129.572 131.077 128.452 132.659 124.951C133.269 123.578 134.712 121.282 137.181 119.069C137.459 119.965 137.653 120.833 137.625 121.646C137.598 127.051 133.768 129.068 131.465 129.908Z" fill="#CD6799"/>
</g>
<defs>
<clipPath id="clip0_1_451">
<rect width="152" height="115" fill="white" transform="translate(24 43)"/>
</clipPath>
</defs>
</svg>
