<svg xmlns="http://www.w3.org/2000/svg" width="64" height="64" viewBox="0 0 16.933 16.933" id="sql-file"><g stroke-width=".968" transform="matrix(1.03366 0 0 1.03333 -2.911 3.935)"><path style="line-height:normal;font-variant-ligatures:normal;font-variant-position:normal;font-variant-caps:normal;font-variant-numeric:normal;font-variant-alternates:normal;font-variant-east-asian:normal;font-feature-settings:normal;font-variation-settings:normal;text-indent:0;text-align:start;text-decoration-line:none;text-decoration-style:solid;text-decoration-color:#000;text-transform:none;text-orientation:mixed;white-space:normal;shape-padding:0;shape-margin:0;inline-size:0;isolation:auto;mix-blend-mode:normal;solid-color:#000;solid-opacity:1" d="M 4.9217235,-3.8085938 A 0.25603411,0.25603411 0 0 0 4.6658641,-3.5527344 V 12.322266 a 0.25603411,0.25603411 0 0 0 0.2558594,0.255859 H 17.093598 a 0.25603411,0.25603411 0 0 0 0.255859,-0.255859 V 1.3886719 a 0.25603411,0.25603411 0 0 0 -0.07227,-0.1796875 l -4.796875,-4.9179688 v -0.00195 a 0.25600851,0.25600851 0 0 0 -0.01953,-0.019531 0.25600851,0.25600851 0 0 0 -0.02149,-0.019531 0.25600851,0.25600851 0 0 0 -0.02344,-0.017578 0.25600851,0.25600851 0 0 0 -0.02344,-0.013672 0.25600851,0.25600851 0 0 0 -0.01367,-0.00586 0.25600851,0.25600851 0 0 0 -0.02539,-0.00977 0.25600851,0.25600851 0 0 0 -0.01367,-0.00391 0.25600851,0.25600851 0 0 0 -0.0059,0 0.25600851,0.25600851 0 0 0 -0.03711,-0.00586 0.25600851,0.25600851 0 0 0 -0.01367,-0.00195 0.25600851,0.25600851 0 0 0 -0.0059,0 h -0.0078 z m 0.2558594,0.5117188 h 6.9902341 l 4.669922,4.7890625 V 12.066406 H 5.1775829 Z" color="#000" enable-background="accumulate" font-family="sans-serif" font-weight="400" opacity=".99" overflow="visible"></path><path style="line-height:normal;font-variant-ligatures:normal;font-variant-position:normal;font-variant-caps:normal;font-variant-numeric:normal;font-variant-alternates:normal;font-variant-east-asian:normal;font-feature-settings:normal;font-variation-settings:normal;text-indent:0;text-align:start;text-decoration-line:none;text-decoration-style:solid;text-decoration-color:#000;text-transform:none;text-orientation:mixed;white-space:normal;shape-padding:0;shape-margin:0;inline-size:0;isolation:auto;mix-blend-mode:normal;solid-color:#000;solid-opacity:1" d="M 12.269531 -3.8085938 A 0.25603411 0.25603411 0 0 0 12.021484 -3.5527344 L 12.021484 1.3886719 A 0.25603411 0.25603411 0 0 0 12.277344 1.6445312 L 17.09375 1.6445312 A 0.25603411 0.25603411 0 0 0 17.277344 1.2089844 L 12.460938 -3.7304688 A 0.25603411 0.25603411 0 0 0 12.269531 -3.8085938 z M 12.533203 -2.921875 L 16.488281 1.1328125 L 12.533203 1.1328125 L 12.533203 -2.921875 z " color="#000" enable-background="accumulate" font-family="sans-serif" font-weight="400" opacity=".99" overflow="visible"></path></g><g style="line-height:2;-inkscape-font-specification:Calibri;text-align:center" fill="none" stroke="#000" stroke-linecap="round" stroke-linejoin="round" stroke-width=".265" aria-label="SQL" font-family="Calibri" font-size="5.292" opacity=".99" text-anchor="middle"><path fill="#000" stroke="none" d="M6.5287998 14.226522q0 .235128-.08785.418579-.085266.183452-.2402956.312643-.1524456.126607-.3617352.191203-.2067059.0646-.4470015.0646-.1679485 0-.3126426-.02842-.1421102-.02842-.2557984-.06976-.1111044-.04134-.1886191-.08527-.074931-.04392-.1059368-.07493-.028422-.03101-.043925-.07752-.012919-.04909-.012919-.129191 0-.05684.00517-.09302.00517-.03876.015503-.06201.010335-.02326.025838-.03101.015503-.01033.036174-.01033.036174 0 .1007691.04392.067179.04392.1705324.0956.1033529.05168.248047.09818.1472779.04392.3384808.04392.1446941 0 .26355-.03876.1214397-.03876.2067059-.108521.08785-.07235.1343588-.1757.046509-.103352.046509-.235127 0-.142111-.064596-.24288-.064596-.100769-.1705323-.1757Q5.722647 13.77952 5.5857044 13.717509 5.4513456 13.652913 5.3092353 13.588318 5.167125 13.521138 5.0327662 13.44104 4.8984074 13.360941 4.7924707 13.252421 4.6865339 13.1439 4.6193545 12.999206q-.064596-.147278-.064596-.3514 0-.20929.074931-.372071.077515-.165364.2118735-.276469.1369426-.111104.3229779-.167948.1886191-.05943.4056602-.05943.1111044 0 .2222088.02067.1136883.01809.2118735.05168.1007691.03101.1782838.07235.077515.03876.1007691.0646.025838.02325.03359.03876.00775.01292.012919.03617.00517.02067.00775.05168.00258.03101.00258.0801 0 .04651-.00517.08268-.00258.03617-.010335.06201-.00775.02325-.023254.03617-.012919.01033-.031006.01033-.028422 0-.090434-.03617-.059428-.03617-.1472779-.0801-.08785-.04651-.2092897-.08268-.1188558-.03876-.2687176-.03876-.1395264 0-.2428794.03876-.1033529.03617-.1705323.09818-.067179.06201-.1007691.147278-.03359.08527-.03359.180868 0 .139526.064596.240295.064596.100769.1705323.178284.1085206.07752.2454632.14211.1369426.0646.2790529.131775.1421103.0646.2790529.144694.1369426.07752.2428794.186036.1085206.105936.1731161.253214.067179.144694.067179.343649zM10.373529 15.459006q0 .05943-.0078.09818-.0052.04134-.01809.06201-.01292.02325-.02842.031-.0155.0078-.03101.0078-.05168 0-.167948-.04392-.113688-.04134-.26355-.124024-.1498618-.0801-.3203941-.19637-.1705323-.116272-.3307294-.271302-.1266073.07752-.320394.134359-.1937868.05684-.4495853.05684-.3772382 0-.6537072-.111104-.2738853-.111104-.4547529-.325562-.1782838-.214457-.2661338-.532267-.08785-.320394-.08785-.733806 0-.397909.095601-.718303.095601-.322978.2868043-.54777.191203-.227377.4780073-.348817.2868044-.124023.6692102-.124023.3591515 0 .6304529.111104.2738852.111105.4573367.325562.1860353.211873.2790529.524516.093018.312643.093018.718303 0 .20929-.025838.400493-.023254.191202-.077515.361735-.051676.170532-.131775.315226-.080099.144694-.1886191.260966.1886191.15503.3307294.24288.1421099.08527.2351279.129191.09302.04392.144694.06201.05168.02067.07752.04393.02584.02584.03617.06976.01034.04651.01034.12144zM9.4950287 13.482381q0-.284221-.051676-.5271Q9.3942596 12.712402 9.2754038 12.534118 9.1591317 12.35325 8.9627612 12.252481 8.7663906 12.151712 8.4770024 12.151712q-.2893882 0-.4857588.10852-.1963705.105937-.320394.289389-.1214397.180867-.1757.421163-.051677.240295-.051677.509013 0 .294556.049093.542603.049093.245463.1653647.426331.116272.180867.3100587.281636.1963706.09819.4909264.09819.2919721 0 .4909264-.108521.1989544-.10852.3203941-.291972.1214397-.186035.1731162-.428915.051676-.245463.051676-.516764zM12.461258 14.970663q0 .05168-.0052.08785-.0052.03359-.01809.05943-.01033.02325-.02842.03617-.0155.01034-.03876.01034h-1.477947q-.05943 0-.113688-.03876-.05168-.04134-.05168-.14211v-3.09542q0-.02067.01034-.03617.01033-.0155.03617-.02325.02584-.01034.06976-.0155.04392-.0078.105937-.0078.0646 0 .105937.0078.04393.0052.06976.0155.02584.0078.03617.02325.01033.0155.01033.03617v2.891298h1.198894q.02325 0 .03876.01292.01809.01033.02842.03359.01292.02067.01809.05684.0052.03617.0052.08785z" font-weight="400"></path></g></svg>