<svg xmlns="http://www.w3.org/2000/svg" width="64" height="64" viewBox="0 0 16.933 16.933" id="sql-file">
<g stroke-width=".968" transform="matrix(1.03366 0 0 1.03333 -2.911 3.935)"><path style="line-height:normal;font-variant-ligatures:normal;font-variant-position:normal;font-variant-caps:normal;font-variant-numeric:normal;font-variant-alternates:normal;font-variant-east-asian:normal;font-feature-settings:normal;font-variation-settings:normal;text-indent:0;text-align:start;text-decoration-line:none;text-decoration-style:solid;text-decoration-color:#000;text-transform:none;text-orientation:mixed;white-space:normal;shape-padding:0;shape-margin:0;inline-size:0;isolation:auto;mix-blend-mode:normal;solid-color:#000;solid-opacity:1" d="M 4.9217235,-3.8085938 A 0.25603411,0.25603411 0 0 0 4.6658641,-3.5527344 V 12.322266 a 0.25603411,0.25603411 0 0 0 0.2558594,0.255859 H 17.093598 a 0.25603411,0.25603411 0 0 0 0.255859,-0.255859 V 1.3886719 a 0.25603411,0.25603411 0 0 0 -0.07227,-0.1796875 l -4.796875,-4.9179688 v -0.00195 a 0.25600851,0.25600851 0 0 0 -0.01953,-0.019531 0.25600851,0.25600851 0 0 0 -0.02149,-0.019531 0.25600851,0.25600851 0 0 0 -0.02344,-0.017578 0.25600851,0.25600851 0 0 0 -0.02344,-0.013672 0.25600851,0.25600851 0 0 0 -0.01367,-0.00586 0.25600851,0.25600851 0 0 0 -0.02539,-0.00977 0.25600851,0.25600851 0 0 0 -0.01367,-0.00391 0.25600851,0.25600851 0 0 0 -0.0059,0 0.25600851,0.25600851 0 0 0 -0.03711,-0.00586 0.25600851,0.25600851 0 0 0 -0.01367,-0.00195 0.25600851,0.25600851 0 0 0 -0.0059,0 h -0.0078 z m 0.2558594,0.5117188 h 6.9902341 l 4.669922,4.7890625 V 12.066406 H 5.1775829 Z" color="#000" enable-background="accumulate" font-family="sans-serif" font-weight="400" opacity=".99" overflow="visible"></path><path style="line-height:normal;font-variant-ligatures:normal;font-variant-position:normal;font-variant-caps:normal;font-variant-numeric:normal;font-variant-alternates:normal;font-variant-east-asian:normal;font-feature-settings:normal;font-variation-settings:normal;text-indent:0;text-align:start;text-decoration-line:none;text-decoration-style:solid;text-decoration-color:#000;text-transform:none;text-orientation:mixed;white-space:normal;shape-padding:0;shape-margin:0;inline-size:0;isolation:auto;mix-blend-mode:normal;solid-color:#000;solid-opacity:1" d="M 12.269531 -3.8085938 A 0.25603411 0.25603411 0 0 0 12.021484 -3.5527344 L 12.021484 1.3886719 A 0.25603411 0.25603411 0 0 0 12.277344 1.6445312 L 17.09375 1.6445312 A 0.25603411 0.25603411 0 0 0 17.277344 1.2089844 L 12.460938 -3.7304688 A 0.25603411 0.25603411 0 0 0 12.269531 -3.8085938 z M 12.533203 -2.921875 L 16.488281 1.1328125 L 12.533203 1.1328125 L 12.533203 -2.921875 z " color="#000" enable-background="accumulate" font-family="sans-serif" font-weight="400" opacity=".99" overflow="visible"></path></g><g style="line-height:2;-inkscape-font-specification:Calibri;text-align:center" fill="none" stroke="#000" stroke-linecap="round" stroke-linejoin="round" stroke-width=".265" aria-label="SQL" font-family="Calibri" font-size="5.292" opacity=".99" text-anchor="middle"><path fill="#000" stroke="none" d="M6.5287998 14.226522q0 .235128-.08785.418579-.085266.183452-.2402956.312643-.1524456.126607-.3617352.191203-.2067059.0646-.4470015.0646-.1679485 0-.3126426-.02842-.1421102-.02842-.2557984-.06976-.1111044-.04134-.1886191-.08527-.074931-.04392-.1059368-.07493-.028422-.03101-.043925-.07752-.012919-.04909-.012919-.129191 0-.05684.00517-.09302.00517-.03876.015503-.06201.010335-.02326.025838-.03101.015503-.01033.036174-.01033.036174 0 .1007691.04392.067179.04392.1705324.0956.1033529.05168.248047.09818.1472779.04392.3384808.04392.1446941 0 .26355-.03876.1214397-.03876.2067059-.108521.08785-.07235.1343588-.1757.046509-.103352.046509-.235127 0-.142111-.064596-.24288-.064596-.100769-.1705323-.1757Q5.722647 13.77952 5.5857044 13.717509 5.4513456 13.652913 5.3092353 13.588318 5.167125 13.521138 5.0327662 13.44104 4.8984074 13.360941 4.7924707 13.252421 4.6865339 13.1439 4.6193545 12.999206q-.064596-.147278-.064596-.3514 0-.20929.074931-.372071.077515-.165364.2118735-.276469.1369426-.111104.3229779-.167948.1886191-.05943.4056602-.05943.1111044 0 .2222088.02067.1136883.01809.2118735.05168.1007691.03101.1782838.07235.077515.03876.1007691.0646.025838.02325.03359.03876.00775.01292.012919.03617.00517.02067.00775.05168.00258.03101.00258.0801 0 .04651-.00517.08268-.00258.03617-.010335.06201-.00775.02325-.023254.03617-.012919.01033-.031006.01033-.028422 0-.090434-.03617-.059428-.03617-.1472779-.0801-.08785-.04651-.2092897-.08268-.1188558-.03876-.2687176-.03876-.1395264 0-.2428794.03876-.1033529.03617-.1705323.09818-.067179.06201-.1007691.147278-.03359.08527-.03359.180868 0 .139526.064596.240295.064596.100769.1705323.178284.1085206.07752.2454632.14211.1369426.0646.2790529.131775.1421103.0646.2790529.144694.1369426.07752.2428794.186036.1085206.105936.1731161.253214.067179.144694.067179.343649zM10.373529 15.459006q0 .05943-.0078.09818-.0052.04134-.01809.06201-.01292.02325-.02842.031-.0155.0078-.03101.0078-.05168 0-.167948-.04392-.113688-.04134-.26355-.124024-.1498618-.0801-.3203941-.19637-.1705323-.116272-.3307294-.271302-.1266073.07752-.320394.134359-.1937868.05684-.4495853.05684-.3772382 0-.6537072-.111104-.2738853-.111104-.4547529-.325562-.1782838-.214457-.2661338-.532267-.08785-.320394-.08785-.733806 0-.397909.095601-.718303.095601-.322978.2868043-.54777.191203-.227377.4780073-.348817.2868044-.124023.6692102-.124023.3591515 0 .6304529.111104.2738852.111105.4573367.325562.1860353.211873.2790529.524516.093018.312643.093018.718303 0 .20929-.025838.400493-.023254.191202-.077515.361735-.051676.170532-.131775.315226-.080099.144694-.1886191.260966.1886191.15503.3307294.24288.1421099.08527.2351279.129191.09302.04392.144694.06201.05168.02067.07752.04393.02584.02584.03617.06976.01034.04651.01034.12144zM9.4950287 13.482381q0-.284221-.051676-.5271Q9.3942596 12.712402 9.2754038 12.534118 9.1591317 12.35325 8.9627612 12.252481 8.7663906 12.151712 8.4770024 12.151712q-.2893882 0-.4857588.10852-.1963705.105937-.320394.289389-.1214397.180867-.1757.421163-.051677.240295-.051677.509013 0 .294556.049093.542603.049093.245463.1653647.426331.116272.180867.3100587.281636.1963706.09819.4909264.09819.2919721 0 .4909264-.108521.1989544-.10852.3203941-.291972.1214397-.186035.1731162-.428915.051676-.245463.051676-.516764zM12.461258 14.970663q0 .05168-.0052.08785-.0052.03359-.01809.05943-.01033.02325-.02842.03617-.0155.01034-.03876.01034h-1.477947q-.05943 0-.113688-.03876-.05168-.04134-.05168-.14211v-3.09542q0-.02067.01034-.03617.01033-.0155.03617-.02325.02584-.01034.06976-.0155.04392-.0078.105937-.0078.0646 0 .105937.0078.04393.0052.06976.0155.02584.0078.03617.02325.01033.0155.01033.03617v2.891298h1.198894q.02325 0 .03876.01292.01809.01033.02842.03359.01292.02067.01809.05684.0052.03617.0052.08785z" font-weight="400"><path fill="currentColor" d="M98.6 64V49.4c0-5.3-3.2-10-8.1-12.1L0 0v8.1l80.7 33.3c2.8 1.1 2.8 5.1 0 6.2L0 80.9v32.5l48.6-20.1 32 13.2c2.8 1.1 2.8 5.1 0 6.2L0 146v51.5l90.5-37.3c4.9-2 8.1-6.8 8.1-12.1v-33.5c0-5.3-3.2-10-8.1-12.1L58.4 89.3l32.1-13.2c4.9-2 8.1-6.8 8.1-12.1zM170.7 49.4l7.2 28.1 8.1-28.1h7.7l7.6 28.1 7.5-28.1h5.7l-9.7 33.9h-7.2l-8-29.2-8.3 29.2H174l-9.4-33.9h6.1zM223.2 68c.2 2.8.5 4.2 1.4 6 1.7 3.2 5.5 5.3 9.3 5.3 4.6 0 7.6-2.2 8.9-6.5h6.3c-1.6 7.3-7.1 11.4-15.3 11.4-10.2 0-16.7-7-16.7-18 0-10.7 6.5-17.9 16.2-17.9 10.3 0 15.9 7 15.9 19.6h-26zm18.2-10.4c-1.6-2.7-4.8-4.3-8.1-4.3-5.7 0-9.3 3.6-10 10.1H243c-.3-3-.7-4.4-1.6-5.8zM254.9 36.5h5.8v18c2.4-4 5.7-5.9 10.5-5.9 8.4 0 14.4 7.3 14.4 17.8S279.9 84 271.3 84c-4.7 0-7.8-1.9-10.8-6.3v5.6h-5.6V36.5zm5.9 29.7c0 7.4 4.2 12.9 9.7 12.9 5.3 0 8.8-5 8.8-12.7 0-8.1-3.5-13.1-9-13.1s-9.5 5.3-9.5 12.9zM296.1 69c-.1 6 3.7 9.9 9.7 9.9 5.4 0 9.3-3.4 9.3-8.1 0-4.8-3.7-7.7-9.7-7.7-.6 0-1.1 0-2 .1V58h1.5c6.2 0 9.8-2.7 9.8-7.5 0-4.5-3.5-7.4-8.8-7.4-5.7 0-9 3.4-9.2 9.4h-6.2c.4-9.3 6.1-14.7 15.5-14.7 8.7 0 14.8 5 14.8 12.2 0 4.8-3.4 9.2-8 10.4 5.6 1.4 8.6 5.2 8.6 10.8 0 7.6-6.5 13-15.7 13-9.6 0-16.1-6.2-16-15.2h6.4zM171 119.3h-6.1v-4.7h6.1c.1-5.6.2-6.8 1-8.8 1.2-3.2 4.3-4.9 8.9-4.9.9 0 1.7.1 3.2.2v5.2c-1.4-.4-2-.4-2.9-.4-2 0-3.5 1-4 2.8-.4 1.2-.4 2.1-.4 5.8h7.3v4.7h-7.3v29.2H171v-29.1zM218.2 131.5c0 10.9-6.5 18-16.5 18-9.8 0-16.3-7.3-16.3-18.1 0-10.7 6.6-17.8 16.5-17.8 9.7.1 16.3 7.3 16.3 17.9zm-26.5-.3c0 8.3 3.7 13.4 9.9 13.4s10.3-5.1 10.3-13c0-8-4-13.1-10.2-13.1-6.2 0-10 4.9-10 12.7zM246.4 144.5c-1.7 3-5.6 4.8-10.2 4.8-4.7 0-8.4-1.9-10.4-5.2-1.3-2.2-1.7-4.5-1.7-10.2v-19.3h5.8V135c0 6.4 2.4 9.4 7.3 9.4 3.2 0 6-1.5 7.6-4 1-1.6 1.2-3.5 1.2-9.5v-16.2h5.8v33.9h-5.6v-4.1zM264.5 118.7c2.6-3.4 5.7-4.8 10.3-4.8 4.7 0 8.4 1.9 10.4 5.2 1.3 2.2 1.7 4.5 1.7 10.2v19.3H281v-20.4c0-6.5-2.4-9.4-7.3-9.4-3.3 0-6 1.5-7.6 4.1-1 1.6-1.2 3.4-1.2 9.5v16.2H259v-33.9h5.5v4zM317.8 148.5v-5.6c-3 4.5-6.2 6.3-10.8 6.3-8.5 0-14.3-7.1-14.3-17.5 0-10.6 5.9-17.9 14.4-17.9 4.8 0 8.1 1.9 10.5 5.9v-18h5.8v46.7h-5.6zM299 131.7c0 7.7 3.4 12.7 8.8 12.7 5.5 0 9.7-5.5 9.7-12.9 0-7.6-3.9-12.9-9.4-12.9s-9.1 5-9.1 13.1zM352.8 148.5c-.3-1.8-.4-2.4-.6-4.2-2.9 3.5-6.2 5-10.9 5-7.3 0-12.2-4.2-12.2-10.3 0-4.5 2.5-7.6 7.5-9.1 1.6-.5 4.2-1 7.2-1.4 1.9-.3 4.1-.6 7.9-.9-.1-4.4-.3-5.7-1.5-7-1.2-1.3-3.3-2.1-5.9-2.1-5 0-7.5 2.2-7.8 6.8h-6.1c.6-4.2 1.4-6.3 3.6-8.2 2.4-2.2 6.2-3.5 10.3-3.5 5.1 0 9.1 1.7 11.3 5 1.8 2.5 2.1 5 2 15.8-.1 6.8.2 10.4 1.1 14.1h-5.9zm-17.4-9.3c0 3.4 2.6 5.4 6.8 5.4 3.6 0 6.4-1.3 8.1-3.9 1-1.5 1.4-3.5 1.4-7.3v-1.2c-12.1.8-16.3 2.6-16.3 7zM372.9 114.7h7.6v4.7h-7.6v18.1c0 3.8.1 4.5.7 5.3.6.8 2 1.3 3.6 1.3 1.2 0 2.3-.2 3.3-.5v5c-2.7.5-3.7.6-5.1.6-3.1 0-5.8-1.4-7.2-3.7-.8-1.5-1.1-2.9-1.1-6.2v-20h-6.2v-4.7h6.2v-8.2h5.8v8.3zM385.7 101.8h5.8v6.8h-5.8v-6.8zm5.9 12.9v33.9h-5.8v-33.9h5.8zM430.2 131.5c0 10.9-6.5 18-16.5 18-9.8 0-16.3-7.3-16.3-18.1 0-10.7 6.6-17.8 16.5-17.8 9.7.1 16.3 7.3 16.3 17.9zm-26.5-.3c0 8.3 3.7 13.4 9.9 13.4s10.3-5.1 10.3-13c0-8-4-13.1-10.2-13.1-6.2 0-10 4.9-10 12.7zM441.6 118.7c2.6-3.4 5.7-4.8 10.3-4.8 4.7 0 8.4 1.9 10.4 5.2 1.3 2.2 1.7 4.5 1.7 10.2v19.3h-5.8v-20.4c0-6.5-2.4-9.4-7.3-9.4-3.3 0-6 1.5-7.6 4.1-1 1.6-1.2 3.4-1.2 9.5v16.2h-5.8v-33.9h5.5v4z"></path></svg>