<svg width="200" height="200" viewBox="0 0 200 200" fill="none" xmlns="http://www.w3.org/2000/svg">
<path d="M170.168 140.686C171.298 138.729 172 136.524 172 134.544V65.8052C172 63.825 171.299 61.6203 170.168 59.6631L100 100.175L170.168 140.686Z" fill="#00599C"/>
<path d="M106.235 179.712L165.765 145.343C167.48 144.353 169.038 142.644 170.168 140.686L100 100.175L29.832 140.687C30.9619 142.644 32.5209 144.354 34.2353 145.343L93.7647 179.712C97.1939 181.693 102.806 181.693 106.235 179.712Z" fill="#004482"/>
<path d="M170.168 59.6627C169.038 57.705 167.479 55.9954 165.765 55.0052L106.235 20.6363C102.806 18.6561 97.1939 18.6561 93.7647 20.6363L34.2353 55.0052C30.8056 56.985 28 61.8452 28 65.8052V134.544C28 136.524 28.7016 138.729 29.832 140.686L100 100.175L170.168 59.6627Z" fill="#659AD2"/>
<path d="M100 148.175C73.5327 148.175 52 126.642 52 100.175C52 73.7073 73.5327 52.1746 100 52.1746C117.079 52.1746 133.007 61.3651 141.568 76.1595L120.794 88.1802C116.51 80.775 108.541 76.1746 100 76.1746C86.7661 76.1746 76 86.9407 76 100.175C76 113.408 86.7661 124.175 100 124.175C108.542 124.175 116.511 119.574 120.796 112.168L141.569 124.188C133.008 138.984 117.08 148.175 100 148.175Z" fill="white"/>
<path d="M148 97.5077H142.666V92.1746H137.334V97.5077H132V102.841H137.334V108.175H142.666V102.841H148V97.5077Z" fill="white"/>
<path d="M168 97.5077H162.666V92.1746H157.334V97.5077H152V102.841H157.334V108.175H162.666V102.841H168V97.5077Z" fill="white"/>
</svg>
