<svg width="200" height="200" viewBox="0 0 200 200" fill="none" xmlns="http://www.w3.org/2000/svg">
<path d="M100.013 162.933L55.0254 150.444L45 38H155.16L145.124 150.427L100.013 162.933Z" fill="#264DE4"/>
<path d="M136.532 143.268L145.108 47.1938H100.08V153.374L136.532 143.268Z" fill="#2965F1"/>
<path d="M67.9829 88.898L69.2187 102.689H100.08V88.898H67.9829ZM65.4991 60.9851L66.7526 74.7759H100.08V60.9851H65.4991ZM100.08 124.714L100.02 124.73L84.6608 120.583L83.6789 109.584H69.8349L71.7669 131.238L100.017 139.08L100.08 139.063V124.714Z" fill="#EBEBEB"/>
<path d="M132.089 88.898L134.578 60.9851H100.032V74.7759H119.465L118.21 88.898H100.032V102.689H117.014L115.413 120.575L100.032 124.726V139.073L128.304 131.238L128.511 128.908L131.753 92.6012L132.089 88.898Z" fill="white"/>
</svg>
