<svg width="200" height="200" viewBox="0 0 200 200" fill="none" xmlns="http://www.w3.org/2000/svg">
<g clip-path="url(#clip0_7_84)">
<path d="M35.4167 1.61203e-05H164.583C169.236 -0.00448106 173.843 0.932018 178.142 2.75592C182.441 4.57981 186.347 7.25531 189.636 10.6293C192.926 14.0032 195.535 18.0094 197.313 22.4186C199.091 26.8277 200.004 31.5533 200 36.3248V163.675C200.004 168.447 199.091 173.172 197.313 177.581C195.535 181.991 192.926 185.997 189.636 189.371C186.347 192.745 182.441 195.42 178.142 197.244C173.843 199.068 169.236 200.004 164.583 200H35.4167C30.7645 200.004 26.157 199.068 21.8581 197.244C17.5592 195.42 13.6532 192.745 10.3635 189.371C7.07392 185.997 4.46532 181.991 2.68702 177.581C0.908717 173.172 -0.00436903 168.447 1.57173e-05 163.675V36.3248C-0.00436903 31.5533 0.908717 26.8277 2.68702 22.4186C4.46532 18.0094 7.07392 14.0032 10.3635 10.6293C13.6532 7.25531 17.5592 4.57981 21.8581 2.75592C26.157 0.932018 30.7645 -0.00448106 35.4167 1.61203e-05Z" fill="#F0F0F0"/>
<path d="M81.5456 137.356C81.5456 137.356 76.3136 140.399 85.2689 141.428C96.118 142.666 101.663 142.488 113.619 140.225C113.619 140.225 116.762 142.196 121.152 143.903C94.3501 155.39 60.4943 143.238 81.5456 137.356Z" fill="#5382A1"/>
<path d="M78.2705 122.366C78.2705 122.366 72.4024 126.71 81.3644 127.637C92.9537 128.833 102.106 128.931 117.943 125.881C117.943 125.881 120.134 128.102 123.578 129.316C91.1732 138.792 55.08 130.063 78.2705 122.366Z" fill="#5382A1"/>
<path d="M105.88 96.9394C112.484 104.543 104.145 111.385 104.145 111.385C104.145 111.385 120.913 102.728 113.212 91.8883C106.02 81.7795 100.504 76.7568 130.364 59.4392C130.364 59.4392 83.4939 71.1452 105.88 96.9394Z" fill="#E76F00"/>
<path d="M141.327 148.443C141.327 148.443 145.199 151.633 137.063 154.101C121.593 158.788 72.6744 160.203 59.0849 154.288C54.1999 152.163 63.3607 149.214 66.2424 148.595C69.2477 147.943 70.9651 148.065 70.9651 148.065C65.5324 144.237 35.8505 155.579 55.8882 158.827C110.534 167.689 155.502 154.837 141.327 148.443Z" fill="#5382A1"/>
<path d="M84.0615 106.836C84.0615 106.836 59.1784 112.746 75.2498 114.892C82.0356 115.801 95.5631 115.595 108.164 114.539C118.461 113.671 128.802 111.824 128.802 111.824C128.802 111.824 125.17 113.379 122.543 115.173C97.2749 121.818 48.461 118.727 62.5139 111.929C74.3985 106.184 84.0615 106.836 84.0615 106.836Z" fill="#5382A1"/>
<path d="M128.699 131.786C154.385 118.439 142.509 105.612 134.219 107.34C132.188 107.763 131.282 108.129 131.282 108.129C131.282 108.129 132.036 106.947 133.477 106.436C149.876 100.67 162.488 123.441 128.183 132.459C128.183 132.459 128.58 132.104 128.699 131.786Z" fill="#5382A1"/>
<path d="M113.212 31.4758C113.212 31.4758 127.438 45.7062 99.7199 67.5886C77.4929 85.142 94.6515 95.1504 99.7107 106.586C86.7364 94.8796 77.215 84.5748 83.6027 74.984C92.9783 60.9057 118.952 54.08 113.212 31.4758Z" fill="#E76F00"/>
<path d="M86.5855 167.955C111.241 169.534 149.103 167.08 150 155.413C150 155.413 148.276 159.836 129.623 163.348C108.579 167.309 82.6238 166.846 67.2295 164.308C67.2299 164.308 70.3809 166.916 86.5855 167.955Z" fill="#5382A1"/>
</g>
<defs>
<clipPath id="clip0_7_84">
<rect width="200" height="200" fill="white"/>
</clipPath>
</defs>
</svg>
